<?xml version="1.0" standalone="no"?>
<!DOCTYPE svg PUBLIC "-//W3C//DTD SVG 20010904//EN"
 "http://www.w3.org/TR/2001/REC-SVG-20010904/DTD/svg10.dtd">
<svg version="1.0" xmlns="http://www.w3.org/2000/svg"
 width="640.000000pt" height="1280.000000pt" viewBox="0 0 640.000000 1280.000000"
 preserveAspectRatio="xMidYMid meet">
<metadata>
Created by potrace 1.15, written by Peter Selinger 2001-2017
</metadata>
<g transform="translate(0.000000,1280.000000) scale(0.100000,-0.100000)"
fill="#000000" stroke="none">
<path d="M3463 12786 c-83 -27 -173 -104 -202 -172 -18 -44 -47 -35 -56 16 -5
31 -12 41 -37 49 -49 17 -68 13 -99 -20 -35 -38 -52 -94 -43 -150 6 -37 12
-43 51 -61 46 -20 57 -18 86 19 20 25 47 31 47 11 0 -7 -12 -52 -26 -100 -21
-69 -31 -88 -46 -88 -14 0 -18 8 -18 40 0 34 -4 42 -30 55 -39 20 -62 19 -94
-6 -40 -31 -56 -71 -56 -138 0 -52 3 -62 26 -80 48 -38 65 -37 102 4 53 58 61
34 26 -77 -24 -76 -33 -93 -49 -93 -16 0 -21 8 -23 41 -3 45 -15 54 -78 54
-54 0 -94 -68 -94 -159 0 -57 2 -61 30 -76 45 -23 72 -19 95 15 20 30 56 41
54 18 0 -7 -13 -53 -28 -103 -31 -102 -49 -115 -66 -46 -11 47 -27 59 -81 60
-52 1 -95 -69 -96 -156 -1 -62 4 -69 58 -88 38 -14 40 -14 65 15 14 17 35 30
47 30 20 0 20 -2 -14 -102 -18 -55 -35 -103 -37 -105 -2 -2 -12 -1 -21 3 -11
4 -16 18 -16 43 0 35 -3 39 -40 50 -53 16 -72 9 -106 -41 -24 -33 -29 -51 -29
-99 0 -66 12 -84 63 -99 29 -8 36 -6 59 21 27 29 63 39 63 17 0 -7 -13 -53
-29 -103 -23 -74 -32 -91 -49 -93 -20 -3 -22 1 -22 38 0 37 -3 42 -35 56 -19
7 -43 14 -53 14 -19 0 -62 -41 -81 -77 -12 -24 -15 -122 -3 -140 4 -6 28 -17
53 -24 46 -12 46 -12 76 21 19 21 35 31 46 27 13 -5 12 -17 -14 -96 -50 -155
-37 -217 60 -286 28 -20 60 -52 72 -71 21 -35 22 -39 15 -357 -4 -177 -16
-862 -26 -1522 -20 -1202 -33 -2004 -49 -2941 -8 -446 -11 -506 -27 -539 -33
-71 -134 -115 -265 -115 -139 0 -269 57 -382 168 -113 110 -159 221 -177 420
-29 323 -41 365 -106 397 -62 31 -156 26 -223 -10 -129 -70 -249 -349 -270
-625 -24 -319 39 -650 218 -1153 38 -107 79 -239 91 -293 42 -192 42 -435 0
-628 -29 -131 -64 -229 -156 -433 -211 -466 -362 -933 -395 -1222 -15 -132 -6
-400 16 -501 95 -429 433 -745 1002 -935 179 -60 556 -105 1063 -125 393 -16
859 4 1048 46 472 105 732 297 911 675 118 249 145 399 122 684 -31 385 -98
583 -441 1295 -167 347 -190 419 -190 592 0 189 24 278 175 650 150 372 172
670 70 974 -40 118 -85 178 -157 209 -80 33 -176 9 -235 -58 -37 -42 -49 -79
-57 -172 -27 -333 -227 -535 -526 -535 -163 0 -311 52 -364 127 -28 41 -29 47
-37 205 -4 90 -13 550 -19 1023 -6 473 -15 1139 -20 1480 -5 341 -14 960 -20
1375 -6 415 -15 1008 -20 1317 -9 608 -9 619 43 720 34 66 128 167 218 234 41
30 72 61 75 75 4 13 -32 234 -80 496 -75 407 -85 475 -75 500 7 18 40 48 84
78 83 56 129 106 159 169 17 37 21 66 21 146 0 87 -3 107 -26 156 -57 122
-155 189 -284 196 -41 1 -87 -3 -112 -11z"/>
</g>
</svg>
