<?xml version="1.0" standalone="no"?>
<!DOCTYPE svg PUBLIC "-//W3C//DTD SVG 20010904//EN"
 "http://www.w3.org/TR/2001/REC-SVG-20010904/DTD/svg10.dtd">
<svg version="1.0" xmlns="http://www.w3.org/2000/svg"
 width="1280.000000pt" height="1049.000000pt" viewBox="0 0 1280.000000 1049.000000"
 preserveAspectRatio="xMidYMid meet">
<metadata>
Created by potrace 1.15, written by Peter Selinger 2001-2017
</metadata>
<g transform="translate(0.000000,1049.000000) scale(0.100000,-0.100000)"
fill="#000000" stroke="none">
<path d="M11940 10474 c-25 -8 -52 -20 -61 -27 -28 -22 -59 -81 -59 -114 0
-42 48 -83 97 -83 26 0 34 -4 31 -16 -2 -10 -42 -31 -111 -57 -124 -46 -138
-44 -119 21 27 88 6 142 -55 142 -53 0 -107 -19 -147 -52 -30 -25 -36 -36 -36
-70 0 -49 40 -92 95 -102 64 -12 41 -33 -80 -73 -99 -32 -117 -35 -125 -23 -6
9 -5 19 0 24 31 31 -12 146 -61 161 -36 12 -84 -4 -122 -39 l-37 -33 16 -47
c12 -34 27 -54 60 -78 25 -17 43 -36 41 -41 -4 -13 -219 -89 -234 -83 -7 3
-13 12 -13 21 0 20 -69 158 -84 167 -21 14 -46 8 -60 -15 -14 -20 -13 -30 9
-100 14 -43 32 -88 40 -101 l15 -23 -116 -42 c-64 -22 -120 -41 -124 -41 -4 0
-10 23 -13 51 -6 48 -44 130 -68 145 -19 11 -89 -27 -95 -53 -11 -43 28 -159
57 -168 11 -4 19 -10 19 -14 0 -8 -221 -91 -241 -91 -16 0 -10 25 17 64 32 46
27 95 -14 133 -23 21 -33 24 -70 19 -54 -7 -114 -38 -141 -72 -26 -32 -26 -49
-3 -93 13 -28 27 -38 67 -50 31 -10 51 -22 53 -33 2 -10 -2 -18 -9 -18 -6 0
-38 -12 -70 -26 -40 -18 -65 -38 -83 -64 -22 -34 -24 -46 -24 -154 1 -111 0
-119 -23 -141 -13 -12 -312 -233 -664 -491 -352 -257 -1052 -769 -1555 -1138
-1773 -1298 -2039 -1493 -2443 -1788 l-408 -298 -57 0 c-174 0 -315 186 -362
477 -13 78 5 210 41 303 44 116 121 213 340 428 196 193 197 193 233 187 32
-7 36 -5 36 14 0 21 4 22 58 19 52 -3 57 -1 54 17 -6 40 -57 165 -68 165 -6 0
-21 -11 -34 -25 -16 -17 -27 -22 -34 -15 -12 12 -53 13 -60 1 -4 -5 -35 10
-70 34 -92 62 -119 68 -255 62 -106 -4 -128 -9 -248 -51 -212 -73 -365 -168
-567 -351 -150 -134 -259 -265 -576 -686 -346 -460 -433 -566 -534 -648 -209
-170 -422 -263 -861 -376 -630 -162 -809 -217 -1025 -310 -218 -94 -364 -184
-535 -327 -151 -126 -281 -293 -345 -442 -29 -68 -64 -218 -90 -386 -21 -133
-23 -166 -17 -390 11 -439 56 -666 202 -1018 41 -100 116 -264 166 -364 l91
-182 -16 -33 c-37 -78 -7 -125 94 -147 30 -6 54 -39 325 -426 189 -270 209
-294 365 -451 292 -293 565 -463 837 -520 115 -24 226 -26 373 -5 124 18 186
36 337 100 279 118 578 388 870 786 117 160 274 435 507 888 91 178 179 342
195 365 62 90 163 197 245 260 140 109 221 143 601 255 370 109 568 186 719
276 171 102 352 290 431 446 68 133 29 335 -78 400 -69 42 -148 25 -417 -92
l-145 -63 -120 1 c-128 0 -172 9 -307 65 -140 57 -239 153 -318 305 -42 81
-44 88 -48 192 l-4 108 323 259 c416 332 678 553 731 616 26 30 438 358 1028
817 542 421 1504 1175 2138 1675 635 500 1192 936 1239 969 114 81 177 98 383
105 155 5 155 5 279 -31 l123 -36 126 117 c69 65 178 179 241 254 64 75 183
215 265 311 81 97 159 181 173 187 36 16 71 14 185 -14 57 -14 128 -25 158
-25 130 0 250 59 361 178 85 91 110 148 112 259 2 151 -39 229 -166 315 -32
22 -79 47 -104 55 -66 23 -192 13 -328 -26 l-110 -32 -17 21 c-16 20 -16 23 8
67 30 57 30 64 -2 102 -29 35 -53 38 -124 15z"/>
</g>
</svg>
