<?xml version="1.0" standalone="no"?>
<!DOCTYPE svg PUBLIC "-//W3C//DTD SVG 20010904//EN"
 "http://www.w3.org/TR/2001/REC-SVG-20010904/DTD/svg10.dtd">
<svg version="1.0" xmlns="http://www.w3.org/2000/svg"
 width="1050.000000pt" height="1280.000000pt" viewBox="0 0 1050.000000 1280.000000"
 preserveAspectRatio="xMidYMid meet">
<metadata>
Created by potrace 1.15, written by Peter Selinger 2001-2017
</metadata>
<g transform="translate(0.000000,1280.000000) scale(0.100000,-0.100000)"
fill="#000000" stroke="none">
<path d="M10195 12660 c-148 -77 -273 -140 -277 -140 -13 0 -9 35 6 72 14 33
13 36 -16 81 -20 32 -37 47 -52 47 -47 0 -94 -22 -134 -63 l-43 -44 15 -36
c15 -38 60 -72 108 -82 15 -4 28 -11 28 -16 0 -15 -222 -121 -232 -111 -5 5
-1 27 11 54 l19 45 -31 48 c-31 47 -31 47 -76 41 -50 -7 -93 -33 -130 -78 -23
-29 -23 -31 -8 -64 18 -36 65 -71 110 -81 15 -3 27 -9 27 -14 0 -15 -222 -121
-232 -111 -6 6 -3 23 6 47 21 50 20 59 -11 106 -26 40 -28 41 -71 35 -54 -7
-99 -34 -131 -76 -20 -28 -21 -35 -11 -61 17 -40 63 -77 105 -85 19 -3 35 -10
35 -15 0 -14 -222 -121 -231 -112 -5 5 -2 29 7 56 16 47 16 47 -13 93 -28 45
-29 45 -72 40 -52 -7 -103 -37 -132 -77 -21 -30 -21 -31 -4 -70 18 -38 78 -79
118 -79 38 0 11 -21 -94 -75 -66 -34 -115 -53 -120 -48 -5 5 -2 29 7 57 l17
48 -30 41 c-27 39 -33 42 -72 40 -49 -2 -102 -32 -132 -74 -18 -25 -19 -34 -9
-64 12 -37 57 -71 109 -81 17 -4 31 -10 31 -14 0 -15 -222 -122 -231 -113 -5
5 -3 28 7 56 l16 46 -32 46 c-17 25 -39 45 -48 45 -45 0 -97 -25 -138 -66
l-44 -44 20 -41 c21 -40 80 -78 123 -79 35 0 15 -17 -73 -64 -66 -35 -90 -53
-90 -67 0 -10 18 -46 40 -78 67 -99 93 -180 93 -291 0 -52 -6 -108 -12 -124
-19 -47 -344 -489 -363 -494 -10 -2 -18 -13 -18 -24 0 -25 -276 -406 -298
-410 -8 -2 -16 -12 -17 -24 -2 -31 -246 -363 -267 -364 -10 0 -18 -3 -19 -7 0
-5 -2 -17 -3 -28 -3 -28 -244 -355 -262 -355 -8 0 -14 -9 -14 -20 0 -19 -197
-301 -228 -327 -8 -7 -20 -23 -27 -37 -27 -52 -218 -306 -230 -306 -7 0 -15
-11 -17 -23 -6 -33 -189 -284 -210 -290 -10 -3 -18 -13 -18 -24 0 -23 -186
-277 -205 -281 -8 -2 -15 -11 -15 -21 0 -25 -166 -248 -190 -254 -12 -3 -19
-12 -18 -24 4 -24 -152 -240 -172 -239 -9 1 -15 -8 -15 -21 -1 -29 -142 -222
-171 -233 -15 -6 -22 -15 -18 -24 8 -21 -132 -214 -154 -212 -11 1 -17 -7 -17
-24 -1 -29 -117 -192 -143 -201 -9 -3 -17 -14 -17 -23 0 -27 -118 -185 -137
-186 -12 0 -18 -8 -18 -23 0 -29 -101 -168 -130 -179 -14 -5 -20 -14 -16 -24
8 -21 -99 -162 -122 -160 -12 1 -16 -6 -15 -22 3 -25 -93 -166 -107 -157 -10
6 -24 -14 -25 -35 0 -27 -88 -140 -108 -140 -13 0 -17 -5 -13 -17 3 -11 -8
-37 -29 -65 -48 -66 -143 -111 -243 -117 -66 -3 -79 0 -137 28 -180 89 -288
352 -272 665 13 252 103 496 278 758 69 102 89 144 89 187 0 20 8 34 25 45 23
15 26 15 45 -4 22 -22 46 -18 55 10 8 27 -40 124 -76 155 -25 20 -34 23 -51
14 -16 -9 -19 -17 -14 -41 8 -43 -17 -62 -55 -42 -75 38 -163 27 -306 -42
-157 -75 -311 -216 -470 -429 -180 -241 -299 -537 -429 -1065 -140 -571 -236
-773 -481 -1011 -143 -139 -223 -193 -708 -477 -645 -377 -861 -528 -1116
-782 -252 -252 -401 -494 -477 -779 -22 -83 -25 -117 -26 -256 0 -155 4 -192
41 -345 78 -327 287 -619 653 -912 92 -74 403 -295 602 -428 54 -36 97 -68 98
-72 0 -4 -17 -6 -38 -5 -35 2 -37 0 -37 -28 0 -23 10 -37 50 -67 49 -37 104
-56 124 -43 16 9 13 36 -5 56 -46 50 25 10 241 -138 325 -223 450 -300 650
-398 303 -150 483 -198 735 -199 131 0 169 3 243 23 234 61 435 187 642 403
164 171 273 340 376 583 139 329 244 731 343 1320 67 401 101 518 194 660 79
124 136 170 483 399 288 190 461 327 611 484 199 208 318 436 318 603 -1 136
-106 228 -227 198 -43 -11 -63 -28 -188 -154 -208 -211 -347 -294 -581 -346
-76 -17 -315 -17 -373 0 -138 40 -251 132 -290 236 -19 50 -22 73 -18 140 3
44 13 102 23 128 20 49 4064 5984 4165 6111 59 74 520 509 1099 1038 184 169
342 319 351 335 28 48 212 602 206 618 -4 8 -12 15 -19 15 -7 0 -134 -63 -283
-140z"/>
</g>
</svg>
